<svg width="20" height="22" viewBox="0 0 20 22" fill="none" xmlns="http://www.w3.org/2000/svg">
<path d="M0.5 12.0001H6.5V10.0001H0.5V0.846106C0.500015 0.75922 0.52267 0.673839 0.565733 0.598376C0.608797 0.522913 0.670781 0.459974 0.745577 0.415763C0.820372 0.371552 0.905398 0.347594 0.992273 0.346251C1.07915 0.344908 1.16487 0.366227 1.241 0.408106L19.703 10.5621C19.7814 10.6053 19.8468 10.6687 19.8923 10.7457C19.9378 10.8228 19.9618 10.9106 19.9618 11.0001C19.9618 11.0896 19.9378 11.1774 19.8923 11.2545C19.8468 11.3315 19.7814 11.3949 19.703 11.4381L1.241 21.5921C1.16487 21.634 1.07915 21.6553 0.992273 21.654C0.905398 21.6526 0.820372 21.6287 0.745577 21.5844C0.670781 21.5402 0.608797 21.4773 0.565733 21.4018C0.52267 21.3264 0.500015 21.241 0.5 21.1541V12.0001Z" fill="white"/>
</svg>
